#!OML:ASF E:\Steps\Project 1\Capture day 1\Session 2\Subject.ASF
:FULLY-SPECIFIED
:DEGREES
563
root 8.50658 18.4552 -3.38543 -156.982 -0.993068 180.59
lowerback -17.3572 -2.68795 -7.59964
upperback 1.9836 -1.92019 -1.44289
thorax 12.2336 -1.40958 2.16185
lowerneck -2.56648 -2.56066 -1.65633
upperneck 17.8782 -3.24297 5.70169
head 5.93533 -0.873447 1.92975
rclavicle 3.18055e-015 6.67916e-014
rhumerus -41.4975 -12.6794 -76.0132
rradius 38.5875
rwrist -4.14016
rhand -7.00028 -55.2299
rfingers 7.12502
rthumb 18.8705 -84.3345
lclavicle 3.18055e-015 6.67916e-014
lhumerus -22.9306 -1.05641 80.011
lradius 37.6321
lwrist 0.643279
lhand -23.2924 -14.2175
lfingers 7.12502
lthumb 3.16068 15.7389
rfemur -65.577 -1.8922 23.4451
rtibia 90.5415
rfoot -18.6545 -8.40805
rtoes -36.3055
lfemur -33.1626 -6.79645 -20.3937
ltibia 21.4663
lfoot -8.98462 0.147944
ltoes -23.3258
564
root 8.49976 18.4736 -3.43998 -157.185 -1.1654 180.515
lowerback -17.0865 -2.77358 -7.60431
upperback 2.00287 -2.05755 -1.45004
thorax 12.1115 -1.47103 2.12636
lowerneck -2.46292 -2.52114 -1.87299
upperneck 17.8334 -3.22693 6.13546
head 5.91196 -0.847005 2.10582
rclavicle -2.22639e-014 -4.92986e-014
rhumerus -41.6623 -13.3397 -75.6001
rradius 37.8304
rwrist -3.52573
rhand -6.80987 -54.8882
rfingers 7.12502
rthumb 19.0537 -83.9749
lclavicle -2.22639e-014 -4.92986e-014
lhumerus -22.7929 -1.1725 79.9442
lradius 37.4782
lwrist 0.509495
lhand -23.355 -13.8949
lfingers 7.12502
lthumb 3.10027 16.0623
rfemur -66.7638 -1.99791 23.4126
rtibia 90.5153
rfoot -19.2234 -8.67014
rtoes -36.2672
lfemur -32.4881 -6.92261 -20.529
ltibia 21.0213
lfoot -8.95025 0.0618269
ltoes -22.8395
565
root 8.49322 18.4903 -3.49763 -157.347 -1.20824 180.522
lowerback -17.0796 -2.84943 -7.57547
upperback 2.12186 -2.15704 -1.42846
thorax 12.2543 -1.52051 2.10224
lowerneck -2.63564 -2.49041 -1.91275
upperneck 17.9204 -3.19987 6.20667
head 5.96968 -0.827865 2.13616
rclavicle 8.34896e-015 4.6118e-014
rhumerus -41.7883 -14.0326 -75.1987
rradius 37.3071
rwrist -2.67252
rhand -6.42408 -54.7093
rfingers 7.12502
rthumb 19.4246 -83.759
lclavicle 8.34896e-015 4.6118e-014
lhumerus -22.352 -1.19391 79.8864
lradius 37.1447
lwrist 0.503207
lhand -23.2113 -13.738
lfingers 7.12502
lthumb 3.23903 16.2171
rfemur -67.899 -1.99191 23.4541
rtibia 90.0726
rfoot -19.4774 -9.29218
rtoes -38.3219
lfemur -31.8107 -6.98166 -20.5744
ltibia 20.5066
lfoot -8.94313 0.0545355
ltoes -22.1673
566
root 8.48787 18.5005 -3.5634 -157.584 -1.21414 180.677
lowerback -17.0263 -2.89609 -7.4544
upperback 2.21396 -2.24729 -1.31539
thorax 12.3378 -1.5587 2.134
lowerneck -2.90955 -2.52138 -1.73222
upperneck 18.1484 -3.22182 5.90499
head 6.08332 -0.840174 2.00821
rclavicle 1.66979e-014 -2.54444e-014
rhumerus -42.0708 -14.2882 -74.8467
rradius 36.9715
rwrist -2.16188
rhand -6.14363 -54.9121
rfingers 7.12502
rthumb 19.6943 -83.9345
lclavicle 1.66979e-014 -2.54444e-014
lhumerus -21.9435 -1.04814 79.952
lradius 36.7017
lwrist 0.374012
lhand -23.1074 -13.8483
lfingers 7.12502
lthumb 3.33936 16.1053
rfemur -68.7241 -1.93564 23.6171
rtibia 89.1981
rfoot -19.568 -9.90889
rtoes -39.4079
lfemur -30.9568 -7.08145 -20.4384
ltibia 19.8561
lfoot -9.05872 0.211015
ltoes -21.8702
567
root 8.48649 18.5098 -3.6259 -157.797 -1.33841 180.833
lowerback -16.796 -2.98525 -7.35685
upperback 2.14411 -2.41995 -1.18307
thorax 12.1411 -1.62951 2.18964
lowerneck -2.94158 -2.54424 -1.73551
upperneck 18.3801 -3.22796 5.80989
head 6.16117 -0.837799 1.98049
rclavicle 1.39149e-014 6.04305e-014
rhumerus -42.4671 -14.7412 -74.3352
rradius 36.3321
rwrist -1.43432
rhand -6.27324 -54.7268
rfingers 7.12502
rthumb 19.5697 -83.7619
lclavicle 1.39149e-014 6.04305e-014
lhumerus -22.0225 -1.03294 80.0099
lradius 36.4616
lwrist 0.140308
lhand -23.24 -14.3019
lfingers 7.12502
lthumb 3.21129 15.6537
rfemur -69.5613 -1.85503 23.7679
rtibia 88.4027
rfoot -19.9039 -10.2153
rtoes -39.1123
lfemur -30.2119 -7.21602 -20.2607
ltibia 19.3245
lfoot -9.20036 0.341763
ltoes -21.7645
568
root 8.48336 18.52 -3.6863 -157.911 -1.47566 180.96
lowerback -16.7386 -3.08324 -7.23056
upperback 2.11899 -2.58892 -1.08845
thorax 12.0939 -1.70009 2.18001
lowerneck -2.78988 -2.4155 -1.75887
upperneck 18.2988 -3.0474 5.84512
head 6.10227 -0.751976 2.00753
rclavicle -8.74653e-015 2.54444e-014
rhumerus -42.7926 -15.072 -73.956
rradius 35.8561
rwrist -1.01049
rhand -6.55283 -54.6179
rfingers 7.12502
rthumb 19.3008 -83.68
lclavicle -8.74653e-015 2.54444e-014
lhumerus -21.9728 -1.19133 80.0209
lradius 36.2311
lwrist 0.117975
lhand -23.3125 -14.2081
lfingers 7.12502
lthumb 3.14132 15.7485
rfemur -70.5031 -1.78512 23.8229
rtibia 87.6603
rfoot -20.3961 -10.2031
rtoes -37.5125
lfemur -29.6516 -7.3069 -20.1345
ltibia 18.93
lfoot -9.26168 0.356199
ltoes -20.6142
569
root 8.47738 18.53 -3.74549 -158.025 -1.63356 181.145
lowerback -16.7394 -3.13448 -6.99004
upperback 2.22465 -2.70288 -0.999694
thorax 12.2184 -1.74157 2.10833
lowerneck -3.06889 -2.33416 -1.69408
upperneck 18.4274 -2.94218 5.77975
head 6.18547 -0.696831 1.9815
rclavicle -3.97569e-016 4.6118e-014
rhumerus -42.9475 -15.0079 -73.899
rradius 35.7144
rwrist -1.26307
rhand -6.64705 -55.3337
rfingers 7.12502
rthumb 19.2102 -84.405
lclavicle -3.97569e-016 4.6118e-014
lhumerus -21.5991 -1.46521 80.0424
lradius 36.0446
lwrist 0.429853
lhand -23.2416 -13.5796
lfingers 7.12502
lthumb 3.20977 16.376
rfemur -71.2585 -1.79537 23.9877
rtibia 86.5663
rfoot -20.5258 -10.6045
rtoes -37.2045
lfemur -29.1394 -7.43913 -19.9455
ltibia 18.6126
lfoot -9.30822 0.388206
ltoes -18.9508
570
root 8.47533 18.5382 -3.80408 -158.125 -1.79432 181.253
lowerback -16.7001 -3.21563 -6.85843
upperback 2.28985 -2.84099 -0.933901
thorax 12.2799 -1.80002 2.06827
lowerneck -3.16903 -2.37363 -1.63767
upperneck 18.5162 -3.00344 5.77283
head 6.23278 -0.71939 1.9661
rclavicle -8.74653e-015 3.02153e-014
rhumerus -43.0473 -15.3512 -73.6835
rradius 35.2316
rwrist -1.04636
rhand -6.69106 -55.4996
rfingers 7.12502
rthumb 19.1679 -84.575
lclavicle -8.74653e-015 3.02153e-014
lhumerus -21.3838 -1.73907 80.018
lradius 35.8971
lwrist 0.665437
lhand -23.1717 -13.1505
lfingers 7.12502
lthumb 3.27726 16.8041
rfemur -71.979 -1.80154 24.1208
rtibia 85.333
rfoot -20.6522 -11.1871
rtoes -38.2016
lfemur -28.6751 -7.61252 -19.819
ltibia 18.3564
lfoot -9.37526 0.464158
ltoes -18.9717
571
root 8.47412 18.5439 -3.86642 -158.256 -1.89904 181.262
lowerback -16.6631 -3.32912 -6.84161
upperback 2.31072 -3.00146 -0.888222
thorax 12.2996 -1.87563 2.06521
lowerneck -3.04319 -2.43444 -1.71631
upperneck 18.5671 -3.09192 5.91738
head 6.23366 -0.752328 2.02173
rclavicle 2.38542e-014 3.18055e-015
rhumerus -43.2843 -16.146 -73.1705
rradius 34.5661
rwrist -0.157826
rhand -6.75594 -55.0034
rfingers 7.12502
rthumb 19.1055 -84.085
lclavicle 2.38542e-014 3.18055e-015
lhumerus -21.2617 -1.80492 79.992
lradius 35.5536
lwrist 0.505472
lhand -23.1464 -13.0711
lfingers 7.12502
lthumb 3.30172 16.8831
rfemur -72.6336 -1.77544 24.0677
rtibia 84.0318
rfoot -20.9111 -11.4256
rtoes -38.02
lfemur -28.0826 -7.77426 -19.8392
ltibia 17.9801
lfoot -9.38556 0.581772
ltoes -19.1909
572
root 8.47009 18.5516 -3.92495 -158.437 -2.08537 181.337
lowerback -16.5057 -3.41697 -6.70663
upperback 2.3461 -3.1618 -0.809584
thorax 12.2596 -1.94239 2.03808
lowerneck -3.31357 -2.47635 -1.83365
upperneck 18.9536 -3.14491 5.98521
head 6.40883 -0.760339 2.06254
rclavicle -9.54166e-015 1.59028e-015
rhumerus -43.6024 -16.7277 -72.7383
rradius 34.1771
rwrist 0.419763
rhand -6.91563 -54.9549
rfingers 7.12502
rthumb 18.952 -84.0516
lclavicle -9.54166e-015 1.59028e-015
lhumerus -21.0361 -1.82679 80.0445
lradius 35.1754
lwrist 0.248322
lhand -23.3723 -13.3718
lfingers 7.12502
lthumb 3.08356 16.5856
rfemur -73.0442 -1.82844 24.1022
rtibia 82.4627
rfoot -20.9192 -11.7433
rtoes -38.2185
lfemur -27.4523 -7.91853 -19.786
ltibia 17.5942
lfoot -9.39901 0.616127
ltoes -18.575
573
root 8.46497 18.5584 -3.98207 -158.557 -2.24355 181.399
lowerback -16.3669 -3.47402 -6.55563
upperback 2.34457 -3.28452 -0.728546
thorax 12.1832 -1.98953 2.01612
lowerneck -3.13914 -2.43736 -1.74414
upperneck 18.7443 -3.08793 5.89968
head 6.30672 -0.744697 2.02242
rclavicle -8.34896e-015 7.95139e-015
rhumerus -43.8813 -17.2171 -72.3059
rradius 33.7383
rwrist 0.771793
rhand -6.95613 -55.0669
rfingers 7.12502
rthumb 18.913 -84.1674
lclavicle -8.34896e-015 7.95139e-015
lhumerus -20.9858 -1.89879 80.1336
lradius 34.9857
lwrist 0.129486
lhand -23.4923 -13.8836
lfingers 7.12502
lthumb 2.96766 16.0755
rfemur -73.5538 -1.86098 24.1406
rtibia 80.9828
rfoot -20.8071 -12.1903
rtoes -38.7477
lfemur -26.9237 -8.0203 -19.74
ltibia 17.2552
lfoot -9.49861 0.545795
ltoes -18.4288
